<svg width="1280" height="720" xmlns="http://www.w3.org/2000/svg" xmlns:xlink="http://www.w3.org/1999/xlink" overflow="hidden"><g><rect x="0" y="0" width="1280" height="720" fill="#FFFFFF"/><path d="M285 253 178 360 71 253Z" fill="#5B9BD5" fill-rule="evenodd"/><path d="M72 252 180 359 72 466Z" fill="#2F5597" fill-rule="evenodd"/><path d="M71 467 178.5 358 286 467Z" fill="#4472C4" fill-rule="evenodd"/><path d="M235 359.5C235 300.682 282.01 253 340 253 397.99 253 445 300.682 445 359.5 445 418.318 397.99 466 340 466 282.01 466 235 418.318 235 359.5Z" fill="#70AD47" fill-rule="evenodd"/><path d="M613 336 613 383C613 429.392 575.392 467 529 467L445 467 445 252 529 252C575.392 252 613 289.608 613 336Z" fill="#7030A0" fill-rule="evenodd"/><path d="M599 468 695.5 252 792 468Z" fill="#FFD966" fill-rule="evenodd"/><path d="M793 468 793 253 995 468Z" fill="#FF0000" fill-rule="evenodd"/><path d="M994 253 994 468 792 253Z" fill="#F76363" fill-rule="evenodd"/><path d="M1000 365.5C1000 309.443 1046.79 264 1104.5 264 1162.21 264 1209 309.443 1209 365.5 1209 421.557 1162.21 467 1104.5 467 1046.79 467 1000 421.557 1000 365.5Z" fill="#70E7F4" fill-rule="evenodd"/></g></svg>